<mxfile host="app.diagrams.net" agent="Mozilla/5.0 (Windows NT 10.0; Win64; x64) AppleWebKit/537.36 (KHTML, like Gecko) Chrome/129.0.0.0 Safari/537.36 Edg/129.0.0.0" version="24.8.0">
  <diagram id="Ht1M8jgEwFfnCIfOTk4-" name="Page-1">
    <mxGraphModel dx="1744" dy="1789" grid="1" gridSize="10" guides="1" tooltips="1" connect="1" arrows="1" fold="1" page="1" pageScale="1" pageWidth="1169" pageHeight="827" background="#ffffff" math="0" shadow="0">
      <root>
        <mxCell id="0" />
        <mxCell id="1" parent="0" />
        <mxCell id="YB_Ejxamvhs15-LeNJI1-143" value="Public subnet" style="points=[[0,0],[0.25,0],[0.5,0],[0.75,0],[1,0],[1,0.25],[1,0.5],[1,0.75],[1,1],[0.75,1],[0.5,1],[0.25,1],[0,1],[0,0.75],[0,0.5],[0,0.25]];outlineConnect=0;gradientColor=none;html=1;whiteSpace=wrap;fontSize=12;fontStyle=0;container=1;pointerEvents=0;collapsible=0;recursiveResize=0;shape=mxgraph.aws4.group;grIcon=mxgraph.aws4.group_security_group;grStroke=0;strokeColor=#7AA116;fillColor=#F2F6E8;verticalAlign=top;align=left;spacingLeft=30;fontColor=#248814;dashed=0;" vertex="1" parent="1">
          <mxGeometry x="642" y="-239" width="130" height="130" as="geometry" />
        </mxCell>
        <mxCell id="YB_Ejxamvhs15-LeNJI1-18" value="" style="outlineConnect=0;dashed=0;verticalLabelPosition=bottom;verticalAlign=top;align=center;html=1;shape=mxgraph.aws3.ec2;fillColor=#F58534;gradientColor=none;" vertex="1" parent="YB_Ejxamvhs15-LeNJI1-143">
          <mxGeometry x="29" y="36" width="73" height="82" as="geometry" />
        </mxCell>
        <mxCell id="YB_Ejxamvhs15-LeNJI1-145" value="Private subnet" style="points=[[0,0],[0.25,0],[0.5,0],[0.75,0],[1,0],[1,0.25],[1,0.5],[1,0.75],[1,1],[0.75,1],[0.5,1],[0.25,1],[0,1],[0,0.75],[0,0.5],[0,0.25]];outlineConnect=0;gradientColor=none;html=1;whiteSpace=wrap;fontSize=12;fontStyle=0;container=1;pointerEvents=0;collapsible=0;recursiveResize=0;shape=mxgraph.aws4.group;grIcon=mxgraph.aws4.group_security_group;grStroke=0;strokeColor=#00A4A6;fillColor=#E6F6F7;verticalAlign=top;align=left;spacingLeft=30;fontColor=#147EBA;dashed=0;" vertex="1" parent="1">
          <mxGeometry x="422" y="-405" width="130" height="130" as="geometry" />
        </mxCell>
        <mxCell id="YB_Ejxamvhs15-LeNJI1-9" value="" style="outlineConnect=0;dashed=0;verticalLabelPosition=bottom;verticalAlign=top;align=center;html=1;shape=mxgraph.aws3.ec2;fillColor=#F58534;gradientColor=none;" vertex="1" parent="YB_Ejxamvhs15-LeNJI1-145">
          <mxGeometry x="26.75" y="30" width="76.5" height="87" as="geometry" />
        </mxCell>
        <mxCell id="YB_Ejxamvhs15-LeNJI1-152" style="edgeStyle=orthogonalEdgeStyle;rounded=0;orthogonalLoop=1;jettySize=auto;html=1;entryX=0.5;entryY=1;entryDx=0;entryDy=0;" edge="1" parent="1" source="YB_Ejxamvhs15-LeNJI1-147" target="YB_Ejxamvhs15-LeNJI1-145">
          <mxGeometry relative="1" as="geometry" />
        </mxCell>
        <mxCell id="YB_Ejxamvhs15-LeNJI1-147" value="Private subnet" style="points=[[0,0],[0.25,0],[0.5,0],[0.75,0],[1,0],[1,0.25],[1,0.5],[1,0.75],[1,1],[0.75,1],[0.5,1],[0.25,1],[0,1],[0,0.75],[0,0.5],[0,0.25]];outlineConnect=0;gradientColor=none;html=1;whiteSpace=wrap;fontSize=12;fontStyle=0;container=1;pointerEvents=0;collapsible=0;recursiveResize=0;shape=mxgraph.aws4.group;grIcon=mxgraph.aws4.group_security_group;grStroke=0;strokeColor=#00A4A6;fillColor=#E6F6F7;verticalAlign=top;align=left;spacingLeft=30;fontColor=#147EBA;dashed=0;" vertex="1" parent="1">
          <mxGeometry x="422" y="-238" width="130" height="130" as="geometry" />
        </mxCell>
        <mxCell id="YB_Ejxamvhs15-LeNJI1-156" value="" style="outlineConnect=0;dashed=0;verticalLabelPosition=bottom;verticalAlign=top;align=center;html=1;shape=mxgraph.aws3.rds_db_instance;fillColor=#2E73B8;gradientColor=none;" vertex="1" parent="YB_Ejxamvhs15-LeNJI1-147">
          <mxGeometry x="33.25" y="38" width="59.75" height="77" as="geometry" />
        </mxCell>
        <mxCell id="YB_Ejxamvhs15-LeNJI1-148" value="Private subnet" style="points=[[0,0],[0.25,0],[0.5,0],[0.75,0],[1,0],[1,0.25],[1,0.5],[1,0.75],[1,1],[0.75,1],[0.5,1],[0.25,1],[0,1],[0,0.75],[0,0.5],[0,0.25]];outlineConnect=0;gradientColor=none;html=1;whiteSpace=wrap;fontSize=12;fontStyle=0;container=1;pointerEvents=0;collapsible=0;recursiveResize=0;shape=mxgraph.aws4.group;grIcon=mxgraph.aws4.group_security_group;grStroke=0;strokeColor=#00A4A6;fillColor=#E6F6F7;verticalAlign=top;align=left;spacingLeft=30;fontColor=#147EBA;dashed=0;" vertex="1" parent="1">
          <mxGeometry x="644" y="-405" width="130" height="130" as="geometry" />
        </mxCell>
        <mxCell id="YB_Ejxamvhs15-LeNJI1-19" value="" style="outlineConnect=0;dashed=0;verticalLabelPosition=bottom;verticalAlign=top;align=center;html=1;shape=mxgraph.aws3.ec2;fillColor=#F58534;gradientColor=none;" vertex="1" parent="YB_Ejxamvhs15-LeNJI1-148">
          <mxGeometry x="26.75" y="30" width="76.5" height="87" as="geometry" />
        </mxCell>
        <mxCell id="YB_Ejxamvhs15-LeNJI1-157" value="3306" style="text;strokeColor=none;align=center;fillColor=none;verticalAlign=middle;rounded=0;html=1;fontSize=10;" vertex="1" parent="1">
          <mxGeometry x="551" y="-269" width="28" height="14" as="geometry" />
        </mxCell>
        <mxCell id="YB_Ejxamvhs15-LeNJI1-172" style="edgeStyle=orthogonalEdgeStyle;rounded=0;orthogonalLoop=1;jettySize=auto;html=1;" edge="1" parent="1" source="YB_Ejxamvhs15-LeNJI1-160">
          <mxGeometry relative="1" as="geometry">
            <mxPoint x="601" y="-604" as="targetPoint" />
          </mxGeometry>
        </mxCell>
        <mxCell id="YB_Ejxamvhs15-LeNJI1-160" value="" style="sketch=0;pointerEvents=1;shadow=0;dashed=0;html=1;strokeColor=none;fillColor=#505050;labelPosition=center;verticalLabelPosition=bottom;verticalAlign=top;outlineConnect=0;align=center;shape=mxgraph.office.users.user;" vertex="1" parent="1">
          <mxGeometry x="548" y="-784" width="107" height="105" as="geometry" />
        </mxCell>
        <mxCell id="YB_Ejxamvhs15-LeNJI1-161" value="VPC" style="sketch=0;outlineConnect=0;gradientColor=none;html=1;whiteSpace=wrap;fontSize=12;fontStyle=0;shape=mxgraph.aws4.group;grIcon=mxgraph.aws4.group_vpc;strokeColor=#879196;fillColor=none;verticalAlign=top;align=left;spacingLeft=30;fontColor=#879196;dashed=0;" vertex="1" parent="1">
          <mxGeometry x="309" y="-594" width="560" height="560" as="geometry" />
        </mxCell>
        <mxCell id="YB_Ejxamvhs15-LeNJI1-166" style="edgeStyle=orthogonalEdgeStyle;rounded=0;orthogonalLoop=1;jettySize=auto;html=1;" edge="1" parent="1" source="YB_Ejxamvhs15-LeNJI1-162">
          <mxGeometry relative="1" as="geometry">
            <mxPoint x="599" y="-444" as="targetPoint" />
          </mxGeometry>
        </mxCell>
        <mxCell id="YB_Ejxamvhs15-LeNJI1-162" value="" style="sketch=0;outlineConnect=0;fontColor=#232F3E;gradientColor=none;fillColor=#8C4FFF;strokeColor=none;dashed=0;verticalLabelPosition=bottom;verticalAlign=top;align=center;html=1;fontSize=12;fontStyle=0;aspect=fixed;pointerEvents=1;shape=mxgraph.aws4.application_load_balancer;" vertex="1" parent="1">
          <mxGeometry x="559" y="-564" width="80" height="80" as="geometry" />
        </mxCell>
        <mxCell id="YB_Ejxamvhs15-LeNJI1-167" value="" style="endArrow=none;html=1;rounded=0;" edge="1" parent="1">
          <mxGeometry width="50" height="50" relative="1" as="geometry">
            <mxPoint x="489" y="-444" as="sourcePoint" />
            <mxPoint x="707" y="-444" as="targetPoint" />
          </mxGeometry>
        </mxCell>
        <mxCell id="YB_Ejxamvhs15-LeNJI1-168" value="" style="edgeStyle=segmentEdgeStyle;endArrow=classic;html=1;curved=0;rounded=0;endSize=8;startSize=8;entryX=0.5;entryY=0;entryDx=0;entryDy=0;" edge="1" parent="1" target="YB_Ejxamvhs15-LeNJI1-148">
          <mxGeometry width="50" height="50" relative="1" as="geometry">
            <mxPoint x="679" y="-444" as="sourcePoint" />
            <mxPoint x="709" y="-424" as="targetPoint" />
          </mxGeometry>
        </mxCell>
        <mxCell id="YB_Ejxamvhs15-LeNJI1-169" value="" style="edgeStyle=segmentEdgeStyle;endArrow=classic;html=1;curved=0;rounded=0;endSize=8;startSize=8;" edge="1" parent="1">
          <mxGeometry width="50" height="50" relative="1" as="geometry">
            <mxPoint x="519" y="-444" as="sourcePoint" />
            <mxPoint x="489" y="-406" as="targetPoint" />
            <Array as="points">
              <mxPoint x="509" y="-444" />
              <mxPoint x="489" y="-444" />
            </Array>
          </mxGeometry>
        </mxCell>
        <mxCell id="YB_Ejxamvhs15-LeNJI1-170" value="" style="edgeStyle=elbowEdgeStyle;elbow=horizontal;endArrow=classic;html=1;curved=0;rounded=0;endSize=8;startSize=8;" edge="1" parent="1">
          <mxGeometry width="50" height="50" relative="1" as="geometry">
            <mxPoint x="488" y="-254" as="sourcePoint" />
            <mxPoint x="639" y="-334" as="targetPoint" />
            <Array as="points">
              <mxPoint x="609" y="-294" />
            </Array>
          </mxGeometry>
        </mxCell>
      </root>
    </mxGraphModel>
  </diagram>
</mxfile>
